<svg id="svg2" xmlns="http://www.w3.org/2000/svg" viewBox="0 0 1734.4 769.85"><defs><style>.cls-1,.cls-3,.cls-4,.cls-5,.cls-6{fill:#ff8d00;}.cls-2,.cls-3,.cls-4,.cls-5,.cls-6{isolation:isolate;}.cls-3,.cls-5{font-size:156.6px;}.cls-3,.cls-4{font-family:Montserrat-SemiBoldItalic, Montserrat;font-weight:600;}.cls-3,.cls-4,.cls-5,.cls-6{font-style:italic;}.cls-4{font-size:33.56px;}.cls-5,.cls-6{font-family:Montserrat-ExtraBoldItalic, Montserrat;font-weight:800;}.cls-6{font-size:22.37px;}</style></defs><g id="Group_132" data-name="Group 132"><g id="Group_9" data-name="Group 9"><path id="Path_2" data-name="Path 2" class="cls-1" d="M152.87,205.91H16.41L41,84.05H471.18l-24.6,121.86H310.11L241.4,550.18H84.28Z" transform="translate(-16.41 -3.49)"/><path id="Path_3" data-name="Path 3" class="cls-1" d="M509.7,185.94H659.53L587,550.17H437.09Zm6-100.55c0-46.61,38-81.9,95.9-81.9,52.57,0,85.23,28.63,85.23,68.58,0,50-38,84.58-95.89,84.58C548.32,156.65,515.69,125.34,515.69,85.39Z" transform="translate(-16.41 -3.49)"/><path id="Path_4" data-name="Path 4" class="cls-1" d="M1212.5,84.05l-93.24,466.13H990.09L856.24,333.09,813,550.18H659.79L753,84.05H882.19L1016,301.13l43.29-217.08Z" transform="translate(-16.41 -3.49)"/><path id="Path_5" data-name="Path 5" class="cls-1" d="M1556.47,304.48h136.46l-40,201.09a324.06,324.06,0,0,1-189.07,55.24c-144.5,0-239.05-84.58-239.05-208.44,0-163.8,121.85-279,299.65-279,97.87,0,167.78,31.32,211.74,91.23l-112.53,87.25a121.63,121.63,0,0,0-106.54-51.28c-81.91,0-133.85,58.6-133.85,141.83,0,54.61,38,91.23,102.55,91.23a156.89,156.89,0,0,0,46-6.71Z" transform="translate(-16.41 -3.49)"/></g><g id="Group_10" data-name="Group 10"><path id="Path_6" data-name="Path 6" class="cls-1" d="M152.87,205.91H16.41L41,84.05H471.18l-24.6,121.86H310.11L241.4,550.18H84.28Z" transform="translate(-16.41 -3.49)"/><path id="Path_7" data-name="Path 7" class="cls-1" d="M509.7,185.94H659.53L587,550.17H437.09Zm6-100.55c0-46.61,38-81.9,95.9-81.9,52.57,0,85.23,28.63,85.23,68.58,0,50-38,84.58-95.89,84.58C548.32,156.65,515.69,125.34,515.69,85.39Z" transform="translate(-16.41 -3.49)"/><path id="Path_8" data-name="Path 8" class="cls-1" d="M1212.5,84.05l-93.24,466.13H990.09L856.24,333.09,813,550.18H659.79L753,84.05H882.19L1016,301.13l43.29-217.08Z" transform="translate(-16.41 -3.49)"/><path id="Path_9" data-name="Path 9" class="cls-1" d="M1556.47,304.48h136.46l-40,201.09a324.06,324.06,0,0,1-189.07,55.24c-144.5,0-239.05-84.58-239.05-208.44,0-163.8,121.85-279,299.65-279,97.87,0,167.78,31.32,211.74,91.23l-112.53,87.25a121.63,121.63,0,0,0-106.54-51.28c-81.91,0-133.85,58.6-133.85,141.83,0,54.61,38,91.23,102.55,91.23a156.89,156.89,0,0,0,46-6.71Z" transform="translate(-16.41 -3.49)"/></g><g id="EVERY_T_iNG" data-name="EVERY T iNG" class="cls-2"><text class="cls-3" transform="translate(964.06 727.88)">MEE</text><text class="cls-4" transform="translate(1319.46 727.88)"> </text><text class="cls-5" transform="translate(1328.72 727.88)">T</text><text class="cls-6" transform="translate(1428.16 727.88)"> </text><text class="cls-5" transform="translate(1434.67 727.88)">iNG</text></g></g></svg>